<?xml version="1.0" encoding="UTF-8" standalone="no"?>
<!DOCTYPE svg PUBLIC "-//W3C//DTD SVG 1.1//EN" "http://www.w3.org/Graphics/SVG/1.1/DTD/svg11.dtd">
<svg width="100%" height="100%" viewBox="0 0 800 300" version="1.1" xmlns="http://www.w3.org/2000/svg" xmlns:xlink="http://www.w3.org/1999/xlink" xml:space="preserve" xmlns:serif="http://www.serif.com/" style="fill-rule:evenodd;clip-rule:evenodd;stroke-linecap:round;stroke-linejoin:round;stroke-miterlimit:1.5;">
    <g id="Ebene2">
        <path d="M40,97.511C286.082,79.08 526.345,79.078 760,100C685.467,192.317 563.949,231.243 398.283,220C243.412,225.443 120.307,189.415 40,97.511Z" style="fill:rgb(106,93,63);stroke:rgb(106,93,63);stroke-width:4.07px;"/>
        <g transform="matrix(1,0,0,1,0,20)">
            <path d="M400,200C564.944,213.116 686.189,174.587 760,80" style="fill:none;stroke:rgb(255,158,0);stroke-width:4.07px;"/>
        </g>
        <g transform="matrix(-1,0,0,1,800,17.5109)">
            <path d="M400,200C564.944,213.116 686.189,174.587 760,80" style="fill:none;stroke:rgb(255,158,0);stroke-width:4.07px;"/>
        </g>
        <g transform="matrix(1,0,0,1,40,7.5)">
            <ellipse cx="360" cy="212.5" rx="60" ry="17.5" style="fill:rgb(106,93,63);stroke:rgb(255,158,0);stroke-width:3px;"/>
        </g>
        <g transform="matrix(1.74577,0,0,1.74577,-273.375,-153.689)">
            <text x="367.042px" y="219.533px" style="font-family:'Algerian', fantasy;font-stretch:extra-condensed;font-size:16px;fill:rgb(255,158,0);">WINS</text>
        </g>
        <g transform="matrix(1,0,0,1,-81.0318,-1.24457)">
            <text x="230px" y="161.245px" style="font-family:'Algerian', fantasy;font-stretch:extra-condensed;font-size:85.5px;fill:rgb(255,158,0);">The Player</text>
        </g>
    </g>
</svg>
